<svg xmlns="http://www.w3.org/2000/svg" xmlns:xlink="http://www.w3.org/1999/xlink" width="500" zoomAndPan="magnify" viewBox="0 0 375 374.999991" height="500" preserveAspectRatio="xMidYMid meet" version="1.0"><defs><g/></defs><path fill="#000814" d="M 187.503906 91.878906 C 134.691406 91.878906 91.878906 134.691406 91.878906 187.503906 C 91.878906 240.316406 134.691406 283.128906 187.503906 283.128906 C 240.316406 283.128906 283.128906 240.316406 283.128906 187.503906 C 283.128906 134.691406 240.316406 91.878906 187.503906 91.878906 " fill-opacity="1" fill-rule="nonzero"/><path fill="#ffffff" d="M 187.429688 275.1875 C 164 275.1875 141.9375 266.070312 125.382812 249.476562 C 108.789062 232.921875 99.671875 210.859375 99.671875 187.429688 C 99.671875 164 108.789062 141.9375 125.382812 125.382812 C 141.9375 108.789062 164 99.671875 187.429688 99.671875 C 210.859375 99.671875 232.921875 108.789062 249.476562 125.382812 C 266.070312 141.972656 275.1875 164 275.1875 187.429688 C 275.1875 210.859375 266.070312 232.921875 249.476562 249.476562 C 232.921875 266.070312 210.859375 275.1875 187.429688 275.1875 Z M 187.429688 104.933594 C 165.402344 104.933594 144.671875 113.527344 129.097656 129.097656 C 113.527344 144.671875 104.933594 165.402344 104.933594 187.429688 C 104.933594 209.457031 113.527344 230.1875 129.097656 245.761719 C 144.671875 261.335938 165.402344 269.925781 187.429688 269.925781 C 209.457031 269.925781 230.1875 261.335938 245.761719 245.761719 C 261.335938 230.1875 269.925781 209.457031 269.925781 187.429688 C 269.925781 165.402344 261.335938 144.671875 245.761719 129.097656 C 230.1875 113.527344 209.457031 104.933594 187.429688 104.933594 Z M 187.429688 104.933594 " fill-opacity="1" fill-rule="nonzero"/><g fill="#ffffff" fill-opacity="1"><g transform="translate(131.797019, 232.356914)"><g><path d="M 0.546875 0.578125 L 7.015625 -5.5 L 11.671875 -0.53125 L 10.515625 0.5625 L 7.125 -3.0625 L 5.640625 -1.671875 L 7.875 0.71875 L 6.75 1.78125 L 4.515625 -0.609375 L 2.96875 0.828125 L 6.40625 4.5 L 5.25 5.59375 Z M 0.546875 0.578125 "/></g></g></g><g fill="#ffffff" fill-opacity="1"><g transform="translate(138.770154, 239.595579)"><g><path d="M 0.625 0.5 L 6.203125 -6.40625 L 7.625 -5.25 L 3.0625 0.390625 L 6.828125 3.4375 L 5.8125 4.703125 Z M 0.625 0.5 "/></g></g></g><g fill="#ffffff" fill-opacity="1"><g transform="translate(146.494183, 245.683186)"><g><path d="M 0.6875 0.40625 L 5.265625 -7.1875 L 11.09375 -3.671875 L 10.28125 -2.3125 L 6.03125 -4.875 L 4.984375 -3.140625 L 7.796875 -1.4375 L 6.984375 -0.109375 L 4.171875 -1.8125 L 3.09375 0 L 7.390625 2.609375 L 6.5625 3.96875 Z M 0.6875 0.40625 "/></g></g></g><g fill="#ffffff" fill-opacity="1"><g transform="translate(155.189743, 250.803374)"><g><path d="M 5.4375 0.5625 C 5.863281 0.75 6.296875 0.832031 6.734375 0.8125 C 7.179688 0.789062 7.625 0.664062 8.0625 0.4375 L 8.703125 2.015625 C 8.128906 2.316406 7.484375 2.472656 6.765625 2.484375 C 6.046875 2.503906 5.367188 2.378906 4.734375 2.109375 C 4.117188 1.859375 3.585938 1.515625 3.140625 1.078125 C 2.703125 0.640625 2.363281 0.148438 2.125 -0.390625 C 1.882812 -0.929688 1.765625 -1.503906 1.765625 -2.109375 C 1.765625 -2.722656 1.890625 -3.328125 2.140625 -3.921875 C 2.378906 -4.503906 2.71875 -5.007812 3.15625 -5.4375 C 3.601562 -5.863281 4.097656 -6.179688 4.640625 -6.390625 C 5.191406 -6.597656 5.78125 -6.695312 6.40625 -6.6875 C 7.03125 -6.6875 7.648438 -6.5625 8.265625 -6.3125 C 8.921875 -6.03125 9.5 -5.625 10 -5.09375 C 10.5 -4.5625 10.84375 -3.972656 11.03125 -3.328125 L 9.40625 -2.703125 C 9.257812 -3.179688 9.03125 -3.597656 8.71875 -3.953125 C 8.414062 -4.304688 8.046875 -4.578125 7.609375 -4.765625 C 7.242188 -4.910156 6.867188 -4.984375 6.484375 -4.984375 C 6.097656 -4.984375 5.738281 -4.910156 5.40625 -4.765625 C 5.082031 -4.628906 4.785156 -4.425781 4.515625 -4.15625 C 4.242188 -3.894531 4.03125 -3.570312 3.875 -3.1875 C 3.71875 -2.8125 3.640625 -2.429688 3.640625 -2.046875 C 3.640625 -1.671875 3.707031 -1.316406 3.84375 -0.984375 C 3.988281 -0.648438 4.191406 -0.347656 4.453125 -0.078125 C 4.722656 0.191406 5.050781 0.40625 5.4375 0.5625 Z M 5.4375 0.5625 "/></g></g></g><g fill="#ffffff" fill-opacity="1"><g transform="translate(165.413046, 254.904451)"><g><path d="M 2.03125 -6.96875 L 2.4375 -8.53125 L 9.984375 -6.609375 L 9.578125 -5.046875 L 6.703125 -5.78125 L 4.90625 1.25 L 3.125 0.796875 L 4.921875 -6.234375 Z M 2.03125 -6.96875 "/></g></g></g><g fill="#ffffff" fill-opacity="1"><g transform="translate(175.290366, 257.304053)"><g><path d="M 0.796875 0.078125 L 1.75 -8.75 L 6.046875 -8.28125 C 6.492188 -8.226562 6.894531 -8.113281 7.25 -7.9375 C 7.613281 -7.757812 7.914062 -7.535156 8.15625 -7.265625 C 8.40625 -7.003906 8.585938 -6.695312 8.703125 -6.34375 C 8.816406 -6 8.851562 -5.625 8.8125 -5.21875 C 8.75 -4.65625 8.535156 -4.171875 8.171875 -3.765625 C 7.804688 -3.367188 7.359375 -3.09375 6.828125 -2.9375 L 8.375 0.90625 L 6.34375 0.6875 L 4.96875 -2.875 L 2.984375 -3.09375 L 2.625 0.28125 Z M 5.71875 -6.703125 L 3.40625 -6.953125 L 3.15625 -4.59375 L 5.46875 -4.34375 C 5.882812 -4.300781 6.226562 -4.375 6.5 -4.5625 C 6.769531 -4.75 6.925781 -5.019531 6.96875 -5.375 C 7.007812 -5.726562 6.914062 -6.023438 6.6875 -6.265625 C 6.457031 -6.515625 6.132812 -6.660156 5.71875 -6.703125 Z M 5.71875 -6.703125 "/></g></g></g><g fill="#ffffff" fill-opacity="1"><g transform="translate(185.818471, 258.352736)"><g><path d="M 9.609375 -4.9375 C 9.640625 -4.300781 9.546875 -3.691406 9.328125 -3.109375 C 9.109375 -2.535156 8.800781 -2.03125 8.40625 -1.59375 C 8.007812 -1.164062 7.53125 -0.820312 6.96875 -0.5625 C 6.414062 -0.300781 5.804688 -0.148438 5.140625 -0.109375 C 4.492188 -0.078125 3.878906 -0.164062 3.296875 -0.375 C 2.710938 -0.582031 2.195312 -0.878906 1.75 -1.265625 C 1.3125 -1.660156 0.957031 -2.128906 0.6875 -2.671875 C 0.414062 -3.222656 0.265625 -3.816406 0.234375 -4.453125 C 0.203125 -5.085938 0.289062 -5.691406 0.5 -6.265625 C 0.71875 -6.835938 1.023438 -7.335938 1.421875 -7.765625 C 1.828125 -8.191406 2.3125 -8.535156 2.875 -8.796875 C 3.4375 -9.066406 4.039062 -9.21875 4.6875 -9.25 C 5.351562 -9.289062 5.972656 -9.203125 6.546875 -8.984375 C 7.128906 -8.773438 7.640625 -8.476562 8.078125 -8.09375 C 8.515625 -7.707031 8.867188 -7.242188 9.140625 -6.703125 C 9.421875 -6.160156 9.578125 -5.570312 9.609375 -4.9375 Z M 7.71875 -4.828125 C 7.695312 -5.242188 7.601562 -5.625 7.4375 -5.96875 C 7.28125 -6.3125 7.070312 -6.601562 6.8125 -6.84375 C 6.550781 -7.082031 6.242188 -7.265625 5.890625 -7.390625 C 5.546875 -7.523438 5.175781 -7.582031 4.78125 -7.5625 C 4.382812 -7.550781 4.015625 -7.457031 3.671875 -7.28125 C 3.335938 -7.113281 3.050781 -6.898438 2.8125 -6.640625 C 2.582031 -6.378906 2.40625 -6.070312 2.28125 -5.71875 C 2.15625 -5.363281 2.101562 -4.976562 2.125 -4.5625 C 2.144531 -4.15625 2.234375 -3.773438 2.390625 -3.421875 C 2.554688 -3.078125 2.769531 -2.78125 3.03125 -2.53125 C 3.289062 -2.28125 3.59375 -2.09375 3.9375 -1.96875 C 4.289062 -1.84375 4.664062 -1.785156 5.0625 -1.796875 C 5.457031 -1.816406 5.820312 -1.910156 6.15625 -2.078125 C 6.5 -2.242188 6.785156 -2.460938 7.015625 -2.734375 C 7.253906 -3.003906 7.4375 -3.316406 7.5625 -3.671875 C 7.6875 -4.035156 7.738281 -4.421875 7.71875 -4.828125 Z M 7.71875 -4.828125 "/></g></g></g><g fill="#ffffff" fill-opacity="1"><g transform="translate(197.842876, 257.431183)"><g/></g></g><g fill="#ffffff" fill-opacity="1"><g transform="translate(202.168907, 256.870467)"><g><path d="M 5.171875 -2.15625 L 0.578125 -6.96875 L 2.40625 -0.703125 L 0.765625 -0.21875 L -1.71875 -8.734375 L 0.546875 -9.390625 L 4.234375 -5.515625 L 5.21875 -10.75 L 7.484375 -11.40625 L 9.96875 -2.890625 L 8.296875 -2.40625 L 6.484375 -8.65625 Z M 5.171875 -2.15625 "/></g></g></g><g fill="#ffffff" fill-opacity="1"><g transform="translate(214.762794, 252.943926)"><g><path d="M 5.984375 -7.171875 C 6.242188 -6.628906 6.394531 -6.09375 6.4375 -5.5625 C 6.488281 -5.039062 6.4375 -4.550781 6.28125 -4.09375 C 6.132812 -3.644531 5.878906 -3.226562 5.515625 -2.84375 C 5.148438 -2.46875 4.707031 -2.148438 4.1875 -1.890625 C 3.632812 -1.628906 3.101562 -1.472656 2.59375 -1.421875 C 2.082031 -1.378906 1.597656 -1.4375 1.140625 -1.59375 C 0.679688 -1.757812 0.265625 -2.019531 -0.109375 -2.375 C -0.492188 -2.726562 -0.816406 -3.179688 -1.078125 -3.734375 L -3.28125 -8.265625 L -1.625 -9.078125 L 0.578125 -4.546875 C 0.867188 -3.929688 1.28125 -3.519531 1.8125 -3.3125 C 2.34375 -3.113281 2.890625 -3.148438 3.453125 -3.421875 C 4.015625 -3.703125 4.375 -4.109375 4.53125 -4.640625 C 4.6875 -5.171875 4.617188 -5.742188 4.328125 -6.359375 L 2.125 -10.890625 L 3.78125 -11.703125 Z M 5.984375 -7.171875 "/></g></g></g><g fill="#ffffff" fill-opacity="1"><g transform="translate(224.668306, 247.941472)"><g><path d="M -0.765625 -1.171875 L -0.625 -2.859375 C 0.0390625 -2.773438 0.628906 -2.785156 1.140625 -2.890625 C 1.660156 -2.992188 2.140625 -3.191406 2.578125 -3.484375 C 3.035156 -3.796875 3.34375 -4.125 3.5 -4.46875 C 3.65625 -4.820312 3.640625 -5.140625 3.453125 -5.421875 C 3.285156 -5.671875 3.0625 -5.800781 2.78125 -5.8125 C 2.5 -5.832031 2.117188 -5.734375 1.640625 -5.515625 L 0 -4.765625 C -0.6875 -4.441406 -1.304688 -4.335938 -1.859375 -4.453125 C -2.410156 -4.566406 -2.867188 -4.890625 -3.234375 -5.421875 C -3.691406 -6.109375 -3.800781 -6.828125 -3.5625 -7.578125 C -3.320312 -8.328125 -2.757812 -9.003906 -1.875 -9.609375 C -1.332031 -9.972656 -0.726562 -10.25 -0.0625 -10.4375 C 0.601562 -10.625 1.25 -10.691406 1.875 -10.640625 L 1.8125 -8.953125 C 1.226562 -8.992188 0.695312 -8.957031 0.21875 -8.84375 C -0.257812 -8.726562 -0.695312 -8.535156 -1.09375 -8.265625 C -1.5 -7.992188 -1.769531 -7.695312 -1.90625 -7.375 C -2.050781 -7.0625 -2.039062 -6.78125 -1.875 -6.53125 C -1.71875 -6.300781 -1.515625 -6.175781 -1.265625 -6.15625 C -1.023438 -6.144531 -0.691406 -6.238281 -0.265625 -6.4375 L 1.265625 -7.140625 C 2.066406 -7.523438 2.769531 -7.664062 3.375 -7.5625 C 3.976562 -7.46875 4.46875 -7.140625 4.84375 -6.578125 C 5.332031 -5.859375 5.4375 -5.09375 5.15625 -4.28125 C 4.882812 -3.476562 4.28125 -2.757812 3.34375 -2.125 C 2.757812 -1.726562 2.109375 -1.445312 1.390625 -1.28125 C 0.671875 -1.113281 -0.046875 -1.078125 -0.765625 -1.171875 Z M -0.765625 -1.171875 "/></g></g></g><g fill="#ffffff" fill-opacity="1"><g transform="translate(232.596007, 242.309111)"><g><path d="M 0.609375 -0.515625 L -5.109375 -7.3125 L -3.703125 -8.5 L 2.015625 -1.703125 Z M 0.609375 -0.515625 "/></g></g></g><g fill="#ffffff" fill-opacity="1"><g transform="translate(236.622573, 238.997153)"><g><path d="M 2.46875 -4.890625 C 2.789062 -5.222656 3.019531 -5.597656 3.15625 -6.015625 C 3.289062 -6.441406 3.335938 -6.894531 3.296875 -7.375 L 4.984375 -7.4375 C 5.046875 -6.789062 4.957031 -6.125 4.71875 -5.4375 C 4.488281 -4.75 4.140625 -4.160156 3.671875 -3.671875 C 3.210938 -3.179688 2.695312 -2.804688 2.125 -2.546875 C 1.550781 -2.296875 0.972656 -2.15625 0.390625 -2.125 C -0.191406 -2.09375 -0.769531 -2.179688 -1.34375 -2.390625 C -1.914062 -2.609375 -2.4375 -2.941406 -2.90625 -3.390625 C -3.363281 -3.828125 -3.710938 -4.328125 -3.953125 -4.890625 C -4.191406 -5.453125 -4.3125 -6.023438 -4.3125 -6.609375 C -4.320312 -7.203125 -4.210938 -7.789062 -3.984375 -8.375 C -3.753906 -8.957031 -3.410156 -9.492188 -2.953125 -9.984375 C -2.460938 -10.492188 -1.878906 -10.882812 -1.203125 -11.15625 C -0.523438 -11.4375 0.132812 -11.550781 0.78125 -11.5 L 0.8125 -9.75 C 0.320312 -9.789062 -0.140625 -9.726562 -0.578125 -9.5625 C -1.023438 -9.394531 -1.410156 -9.144531 -1.734375 -8.8125 C -2.003906 -8.519531 -2.207031 -8.191406 -2.34375 -7.828125 C -2.476562 -7.472656 -2.535156 -7.113281 -2.515625 -6.75 C -2.503906 -6.394531 -2.425781 -6.046875 -2.28125 -5.703125 C -2.132812 -5.359375 -1.910156 -5.046875 -1.609375 -4.765625 C -1.316406 -4.484375 -0.988281 -4.273438 -0.625 -4.140625 C -0.269531 -4.003906 0.0859375 -3.941406 0.453125 -3.953125 C 0.816406 -3.960938 1.171875 -4.046875 1.515625 -4.203125 C 1.859375 -4.359375 2.175781 -4.585938 2.46875 -4.890625 Z M 2.46875 -4.890625 "/></g></g></g><g fill="#ffffff" fill-opacity="1"><g transform="translate(134.946809, 156.962935)"><g><path d="M -7.078125 -5.515625 L -8.703125 -6.6875 L -3.03125 -14.484375 L -1.40625 -13.3125 L -3.578125 -10.328125 L 3.671875 -5.046875 L 2.34375 -3.21875 L -4.90625 -8.5 Z M -7.078125 -5.515625 "/></g></g></g><g fill="#ffffff" fill-opacity="1"><g transform="translate(141.275739, 148.246737)"><g><path d="M 0.71875 -0.671875 L -6.796875 -8.65625 L -5.140625 -10.21875 L -2.125 -7.015625 L 1.546875 -10.484375 L -1.46875 -13.6875 L 0.1875 -15.234375 L 7.703125 -7.25 L 6.046875 -5.703125 L 2.96875 -8.96875 L -0.703125 -5.5 L 2.375 -2.234375 Z M 0.71875 -0.671875 "/></g></g></g><g fill="#ffffff" fill-opacity="1"><g transform="translate(150.133855, 140.007474)"><g><path d="M 3.71875 -2.34375 L 1.484375 -5.90625 L -5.921875 -9.234375 L -3.71875 -10.625 L 1.421875 -8.234375 L 1.5 -13.90625 L 3.59375 -15.21875 L 3.390625 -7.09375 L 5.625 -3.546875 Z M 3.71875 -2.34375 "/></g></g></g><g fill="#ffffff" fill-opacity="1"><g transform="translate(159.94083, 133.852958)"><g><path d="M -3.015625 -10.59375 L -1 -11.375 L 6.640625 -6.703125 L 4.09375 -13.328125 L 6.078125 -14.09375 L 10.015625 -3.859375 L 8.15625 -3.140625 L 0.296875 -7.96875 L 2.9375 -1.125 L 0.921875 -0.359375 Z M -3.015625 -10.59375 "/></g></g></g><g fill="#ffffff" fill-opacity="1"><g transform="translate(171.404229, 129.530723)"><g><path d="M 0.96875 -0.171875 L -0.9375 -10.96875 L 1.3125 -11.359375 L 2.171875 -6.515625 L 6.03125 -12.203125 L 8.75 -12.671875 L 4.453125 -6.609375 L 10.90625 -1.921875 L 7.921875 -1.390625 L 2.328125 -5.625 L 3.21875 -0.5625 Z M 0.96875 -0.171875 "/></g></g></g><g fill="#ffffff" fill-opacity="1"><g transform="translate(183.037333, 127.788697)"><g/></g></g><g fill="#ffffff" fill-opacity="1"><g transform="translate(187.083408, 127.45371)"><g><path d="M 0.171875 -1.734375 L 1.59375 -3.265625 C 2.1875 -2.660156 2.769531 -2.207031 3.34375 -1.90625 C 3.914062 -1.601562 4.53125 -1.429688 5.1875 -1.390625 C 5.863281 -1.335938 6.410156 -1.421875 6.828125 -1.640625 C 7.253906 -1.859375 7.484375 -2.175781 7.515625 -2.59375 C 7.546875 -2.96875 7.429688 -3.269531 7.171875 -3.5 C 6.910156 -3.726562 6.460938 -3.914062 5.828125 -4.0625 L 3.6875 -4.609375 C 2.757812 -4.835938 2.070312 -5.21875 1.625 -5.75 C 1.175781 -6.289062 0.984375 -6.957031 1.046875 -7.75 C 1.117188 -8.769531 1.566406 -9.546875 2.390625 -10.078125 C 3.210938 -10.609375 4.285156 -10.828125 5.609375 -10.734375 C 6.398438 -10.671875 7.1875 -10.472656 7.96875 -10.140625 C 8.757812 -9.804688 9.4375 -9.378906 10 -8.859375 L 8.671875 -7.28125 C 8.109375 -7.757812 7.554688 -8.125 7.015625 -8.375 C 6.472656 -8.632812 5.90625 -8.789062 5.3125 -8.84375 C 4.707031 -8.882812 4.210938 -8.804688 3.828125 -8.609375 C 3.453125 -8.410156 3.253906 -8.128906 3.234375 -7.765625 C 3.203125 -7.421875 3.296875 -7.144531 3.515625 -6.9375 C 3.734375 -6.738281 4.125 -6.578125 4.6875 -6.453125 L 6.71875 -5.953125 C 7.800781 -5.691406 8.59375 -5.28125 9.09375 -4.71875 C 9.59375 -4.164062 9.8125 -3.46875 9.75 -2.625 C 9.664062 -1.5625 9.179688 -0.742188 8.296875 -0.171875 C 7.410156 0.398438 6.269531 0.632812 4.875 0.53125 C 4 0.457031 3.148438 0.222656 2.328125 -0.171875 C 1.503906 -0.566406 0.785156 -1.085938 0.171875 -1.734375 Z M 0.171875 -1.734375 "/></g></g></g><g fill="#ffffff" fill-opacity="1"><g transform="translate(197.569556, 128.287845)"><g><path d="M 2.484375 -8.625 L 2.984375 -10.5625 L 12.34375 -8.171875 L 11.84375 -6.234375 L 8.28125 -7.140625 L 6.0625 1.546875 L 3.859375 0.984375 L 6.078125 -7.703125 Z M 2.484375 -8.625 "/></g></g></g><g fill="#ffffff" fill-opacity="1"><g transform="translate(208.015882, 130.950924)"><g><path d="M 11.546875 0.125 C 11.234375 0.800781 10.84375 1.367188 10.375 1.828125 C 9.90625 2.285156 9.390625 2.613281 8.828125 2.8125 C 8.273438 3.019531 7.675781 3.097656 7.03125 3.046875 C 6.394531 3.003906 5.742188 2.832031 5.078125 2.53125 C 4.410156 2.21875 3.851562 1.832031 3.40625 1.375 C 2.957031 0.914062 2.628906 0.40625 2.421875 -0.15625 C 2.210938 -0.71875 2.132812 -1.320312 2.1875 -1.96875 C 2.238281 -2.613281 2.421875 -3.28125 2.734375 -3.96875 L 5.359375 -9.609375 L 7.4375 -8.65625 L 4.8125 -3.015625 C 4.457031 -2.242188 4.382812 -1.519531 4.59375 -0.84375 C 4.800781 -0.175781 5.257812 0.316406 5.96875 0.640625 C 6.675781 0.972656 7.351562 1.003906 8 0.734375 C 8.644531 0.460938 9.144531 -0.0546875 9.5 -0.828125 L 12.125 -6.46875 L 14.171875 -5.515625 Z M 11.546875 0.125 "/></g></g></g><g fill="#ffffff" fill-opacity="1"><g transform="translate(218.763469, 135.988673)"><g><path d="M 0.796875 0.578125 L 7.265625 -8.28125 L 10.671875 -5.796875 C 11.328125 -5.316406 11.859375 -4.753906 12.265625 -4.109375 C 12.679688 -3.460938 12.953125 -2.789062 13.078125 -2.09375 C 13.203125 -1.394531 13.179688 -0.679688 13.015625 0.046875 C 12.859375 0.773438 12.554688 1.453125 12.109375 2.078125 C 11.660156 2.691406 11.117188 3.179688 10.484375 3.546875 C 9.847656 3.910156 9.175781 4.132812 8.46875 4.21875 C 7.769531 4.3125 7.046875 4.257812 6.296875 4.0625 C 5.554688 3.875 4.859375 3.539062 4.203125 3.0625 Z M 9.46875 -4.171875 L 7.921875 -5.3125 L 3.828125 0.296875 L 5.375 1.4375 C 5.757812 1.71875 6.175781 1.90625 6.625 2 C 7.070312 2.101562 7.515625 2.125 7.953125 2.0625 C 8.390625 2 8.804688 1.847656 9.203125 1.609375 C 9.597656 1.378906 9.9375 1.070312 10.21875 0.6875 C 10.5 0.289062 10.691406 -0.128906 10.796875 -0.578125 C 10.910156 -1.023438 10.929688 -1.46875 10.859375 -1.90625 C 10.796875 -2.351562 10.644531 -2.769531 10.40625 -3.15625 C 10.164062 -3.550781 9.851562 -3.890625 9.46875 -4.171875 Z M 9.46875 -4.171875 "/></g></g></g><g fill="#ffffff" fill-opacity="1"><g transform="translate(228.539714, 143.506671)"><g><path d="M 0.703125 0.6875 L 8.359375 -7.171875 L 10 -5.578125 L 2.34375 2.28125 Z M 0.703125 0.6875 "/></g></g></g><g fill="#ffffff" fill-opacity="1"><g transform="translate(232.321188, 146.824373)"><g><path d="M 11.71875 6.390625 C 11.09375 6.859375 10.410156 7.179688 9.671875 7.359375 C 8.929688 7.546875 8.203125 7.585938 7.484375 7.484375 C 6.773438 7.378906 6.085938 7.128906 5.421875 6.734375 C 4.765625 6.347656 4.191406 5.832031 3.703125 5.1875 C 3.210938 4.539062 2.867188 3.847656 2.671875 3.109375 C 2.484375 2.367188 2.429688 1.632812 2.515625 0.90625 C 2.609375 0.1875 2.84375 -0.5 3.21875 -1.15625 C 3.59375 -1.820312 4.09375 -2.390625 4.71875 -2.859375 C 5.34375 -3.328125 6.023438 -3.648438 6.765625 -3.828125 C 7.503906 -4.015625 8.226562 -4.050781 8.9375 -3.9375 C 9.65625 -3.820312 10.34375 -3.570312 11 -3.1875 C 11.664062 -2.800781 12.242188 -2.285156 12.734375 -1.640625 C 13.222656 -0.992188 13.5625 -0.300781 13.75 0.4375 C 13.945312 1.1875 14 1.914062 13.90625 2.625 C 13.820312 3.34375 13.59375 4.03125 13.21875 4.6875 C 12.84375 5.351562 12.34375 5.921875 11.71875 6.390625 Z M 10.3125 4.53125 C 10.71875 4.226562 11.039062 3.875 11.28125 3.46875 C 11.519531 3.070312 11.675781 2.648438 11.75 2.203125 C 11.820312 1.765625 11.796875 1.316406 11.671875 0.859375 C 11.554688 0.410156 11.351562 -0.00390625 11.0625 -0.390625 C 10.757812 -0.785156 10.410156 -1.097656 10.015625 -1.328125 C 9.617188 -1.554688 9.195312 -1.691406 8.75 -1.734375 C 8.3125 -1.785156 7.863281 -1.75 7.40625 -1.625 C 6.957031 -1.507812 6.53125 -1.300781 6.125 -1 C 5.726562 -0.695312 5.410156 -0.34375 5.171875 0.0625 C 4.929688 0.46875 4.769531 0.890625 4.6875 1.328125 C 4.613281 1.765625 4.628906 2.207031 4.734375 2.65625 C 4.847656 3.101562 5.054688 3.523438 5.359375 3.921875 C 5.648438 4.304688 6 4.613281 6.40625 4.84375 C 6.8125 5.082031 7.238281 5.226562 7.6875 5.28125 C 8.132812 5.332031 8.582031 5.296875 9.03125 5.171875 C 9.488281 5.046875 9.914062 4.832031 10.3125 4.53125 Z M 10.3125 4.53125 "/></g></g></g><path fill="#ffb703" d="M 181.148438 202.773438 C 181.140625 202.773438 181.136719 202.773438 181.128906 202.773438 C 180.863281 202.765625 180.644531 202.558594 180.621094 202.292969 L 178.574219 179.183594 L 176.097656 189.351562 C 176.039062 189.585938 175.828125 189.753906 175.582031 189.753906 L 170.019531 189.753906 C 169.726562 189.753906 169.492188 189.519531 169.492188 189.226562 C 169.492188 188.933594 169.726562 188.699219 170.019531 188.699219 L 175.167969 188.699219 L 178.304688 175.824219 C 178.363281 175.574219 178.609375 175.40625 178.855469 175.421875 C 179.117188 175.441406 179.320312 175.644531 179.34375 175.902344 L 181.292969 197.921875 L 184.117188 179.992188 C 184.160156 179.730469 184.351562 179.515625 184.660156 179.546875 C 184.929688 179.558594 185.148438 179.765625 185.167969 180.03125 L 186.050781 191.375 L 187.617188 184.089844 C 187.667969 183.847656 187.878906 183.675781 188.125 183.671875 C 188.410156 183.675781 188.589844 183.832031 188.648438 184.070312 L 189.445312 187.246094 L 191.367188 175.21875 C 191.410156 174.953125 191.613281 174.757812 191.917969 174.777344 C 192.1875 174.792969 192.40625 175.007812 192.414062 175.277344 L 193.382812 196.890625 L 196.027344 183.324219 C 196.074219 183.082031 196.28125 182.90625 196.527344 182.898438 C 196.78125 182.878906 196.992188 183.054688 197.054688 183.289062 L 198.636719 189.226562 L 203.585938 189.351562 C 203.878906 189.359375 204.109375 189.597656 204.101562 189.890625 C 204.09375 190.179688 203.847656 190.40625 203.558594 190.402344 L 198.214844 190.269531 C 197.980469 190.265625 197.777344 190.105469 197.71875 189.878906 L 196.625 185.777344 L 193.570312 201.445312 C 193.519531 201.707031 193.296875 201.890625 193.015625 201.871094 C 192.746094 201.851562 192.535156 201.636719 192.527344 201.367188 L 191.59375 180.503906 L 190.082031 189.953125 C 190.042969 190.203125 189.832031 190.386719 189.582031 190.398438 C 189.324219 190.40625 189.105469 190.242188 189.046875 190 L 188.175781 186.527344 L 186.324219 195.140625 C 186.269531 195.394531 186.027344 195.570312 185.769531 195.554688 C 185.507812 195.539062 185.300781 195.328125 185.28125 195.070312 L 184.464844 184.597656 L 181.667969 202.328125 C 181.628906 202.585938 181.40625 202.773438 181.148438 202.773438 " fill-opacity="1" fill-rule="nonzero"/><path fill="#ffffff" d="M 228.769531 183.40625 C 228.753906 183.410156 228.734375 183.410156 228.714844 183.410156 C 228.449219 183.410156 228.21875 183.210938 228.191406 182.9375 C 225.992188 161.550781 205.835938 144.585938 184.171875 145.890625 C 176.46875 146.355469 169.023438 149.007812 162.640625 153.5625 C 162.402344 153.734375 162.074219 153.679688 161.90625 153.441406 C 161.734375 153.207031 161.789062 152.878906 162.027344 152.707031 C 168.570312 148.039062 176.203125 145.316406 184.109375 144.839844 C 206.320312 143.496094 226.984375 160.898438 229.242188 182.832031 C 229.273438 183.121094 229.0625 183.378906 228.769531 183.40625 Z M 224.589844 181.394531 C 224.554688 181.398438 224.523438 181.402344 224.488281 181.402344 C 224.242188 181.402344 224.019531 181.226562 223.972656 180.972656 C 220.570312 163.21875 203.652344 149.65625 185.535156 150.050781 C 179.351562 150.195312 173.207031 151.90625 167.761719 155 C 167.507812 155.140625 167.183594 155.054688 167.039062 154.800781 C 166.894531 154.550781 166.984375 154.230469 167.238281 154.082031 C 172.832031 150.90625 179.152344 149.148438 185.511719 149 C 204.148438 148.613281 221.511719 162.527344 225.011719 180.777344 C 225.066406 181.0625 224.875 181.339844 224.589844 181.394531 Z M 220.632812 179.5625 C 220.585938 179.574219 220.535156 179.582031 220.488281 179.582031 C 220.257812 179.582031 220.046875 179.429688 219.980469 179.199219 C 217.351562 170.035156 210.675781 162.21875 201.667969 157.753906 C 192.777344 153.351562 182.652344 152.761719 173.882812 156.144531 C 173.613281 156.246094 173.304688 156.117188 173.199219 155.84375 C 173.09375 155.570312 173.230469 155.265625 173.5 155.160156 C 182.546875 151.675781 192.984375 152.277344 202.136719 156.8125 C 211.410156 161.40625 218.285156 169.460938 220.996094 178.910156 C 221.078125 179.191406 220.917969 179.480469 220.632812 179.5625 Z M 203.933594 189.363281 C 202.777344 198.679688 194.265625 205.296875 184.914062 204.148438 C 175.566406 203.003906 168.917969 194.519531 170.074219 185.203125 C 171.226562 175.890625 179.738281 169.269531 189.089844 170.417969 C 198.4375 171.566406 205.085938 180.050781 203.933594 189.363281 Z M 189.125 229.714844 C 188.855469 229.71875 188.582031 229.722656 188.308594 229.722656 C 172.8125 229.722656 157.539062 220.433594 150.09375 206.40625 C 149.957031 206.144531 150.054688 205.828125 150.3125 205.691406 C 150.570312 205.558594 150.890625 205.652344 151.027344 205.914062 C 158.421875 219.84375 173.730469 229.019531 189.105469 228.664062 C 189.105469 228.664062 189.113281 228.664062 189.113281 228.664062 C 189.402344 228.664062 189.640625 228.890625 189.644531 229.175781 C 189.648438 229.46875 189.417969 229.707031 189.125 229.714844 Z M 155.269531 206.140625 C 155.515625 205.984375 155.839844 206.054688 156 206.300781 C 162.660156 216.679688 174.222656 223.605469 186.175781 224.375 C 186.46875 224.390625 186.691406 224.640625 186.671875 224.933594 C 186.652344 225.210938 186.417969 225.425781 186.144531 225.425781 C 186.132812 225.425781 186.121094 225.425781 186.109375 225.425781 C 173.824219 224.632812 161.949219 217.523438 155.109375 206.867188 C 154.949219 206.625 155.023438 206.300781 155.269531 206.140625 Z M 160.011719 206.625 C 160.242188 206.449219 160.574219 206.488281 160.757812 206.714844 C 166.339844 213.757812 174.625 218.625 183.488281 220.070312 C 183.773438 220.121094 183.96875 220.390625 183.921875 220.675781 C 183.878906 220.933594 183.65625 221.117188 183.402344 221.117188 C 183.375 221.117188 183.34375 221.117188 183.316406 221.109375 C 174.195312 219.621094 165.671875 214.613281 159.925781 207.367188 C 159.746094 207.140625 159.785156 206.808594 160.011719 206.625 Z M 194.050781 139.621094 C 167.648438 135.964844 143.273438 154.324219 139.601562 180.625 C 138.597656 187.832031 139.261719 194.882812 141.28125 201.402344 L 153.960938 172.898438 L 153.148438 172.464844 C 151.542969 171.609375 150.933594 169.613281 151.796875 168.011719 L 156.863281 161.011719 C 157.984375 159.648438 158.398438 159.179688 160.007812 160.035156 L 162.304688 161.335938 C 163.355469 161.890625 163.90625 162.785156 163.328125 164.453125 L 160.300781 172.539062 C 159.476562 174.078125 157.605469 174.679688 156.035156 173.976562 L 143.363281 206.894531 C 149.941406 221.492188 163.679688 232.503906 180.761719 234.871094 C 192.292969 236.46875 203.441406 233.859375 212.644531 228.230469 L 212.964844 224.011719 C 212.964844 224.011719 208.917969 216.476562 206.488281 214 C 204.050781 211.527344 203.238281 208.503906 202.519531 207.671875 C 201.800781 206.839844 199.710938 204.5625 198.9375 204.558594 C 198.167969 204.554688 198.480469 200.246094 203.59375 204.023438 C 205.582031 205.648438 206.777344 209.363281 209.738281 208.28125 C 212.363281 207.113281 210.976562 201.375 210.976562 201.375 L 210.234375 192.957031 C 210.234375 192.957031 209.042969 185.566406 211.78125 185.261719 C 214.039062 185.011719 214 191.050781 213.902344 192.488281 C 213.886719 192.714844 213.980469 200.871094 215.519531 200.765625 C 217.054688 200.660156 216.542969 192.980469 216.527344 192.53125 C 216.46875 190.429688 216.28125 184.296875 218.765625 184.046875 C 221.273438 183.792969 220.328125 188.765625 220.308594 194.144531 C 220.308594 194.707031 219.351562 200.449219 220.757812 200.710938 C 222.492188 201.035156 223.773438 188.710938 223.996094 187.925781 C 224.21875 187.140625 224.746094 186.363281 225.800781 186.453125 C 226.855469 186.550781 227.402344 188.105469 226.640625 192.285156 C 225.878906 196.460938 224.488281 200.347656 224.488281 200.347656 C 224.488281 200.347656 223.453125 203.003906 224.417969 203.378906 C 225.382812 203.753906 227.378906 199.878906 227.367188 199.660156 C 227.351562 199.441406 229.550781 192.855469 230.996094 193.03125 C 232.445312 193.210938 232 196.375 230.707031 199.265625 C 229.414062 202.160156 227.78125 206.507812 227.335938 208.128906 C 226.992188 209.40625 226.101562 214.089844 224.996094 217.402344 C 230.308594 210.84375 233.960938 202.816406 235.207031 193.863281 C 238.878906 167.5625 220.453125 143.273438 194.050781 139.621094 " fill-opacity="1" fill-rule="nonzero"/><path fill="#ffffff" d="M 122.054688 184.402344 C 120.398438 184.402344 119.054688 185.746094 119.054688 187.402344 C 119.054688 189.058594 120.398438 190.402344 122.054688 190.402344 C 123.710938 190.402344 125.054688 189.058594 125.054688 187.402344 C 125.054688 185.746094 123.710938 184.402344 122.054688 184.402344 " fill-opacity="1" fill-rule="nonzero"/><path fill="#ffffff" d="M 252.75 184.402344 C 251.09375 184.402344 249.75 185.746094 249.75 187.402344 C 249.75 189.058594 251.09375 190.402344 252.75 190.402344 C 254.40625 190.402344 255.75 189.058594 255.75 187.402344 C 255.75 185.746094 254.40625 184.402344 252.75 184.402344 " fill-opacity="1" fill-rule="nonzero"/></svg>